PathFileType	4	(X/Y/Z)	c:/Users/goper/Files/vsCode/490R/osim_files/A03/A03_Slow_03.trc
DataRate	CameraRate	NumFrames	NumMarkers	Units                	OrigDataRate	OrigDataStartFrame	OrigNumFrames
250.00	250.00	7	36	mm	250.0	1113	2967
                Frame#	Time	LPSIS			LASIS			LTH1			LTH2			LTH3			LTH4			LLFE			LMFE			LSH1			LSH2			LSH3			LSH4			LLMAL			LMMAL			LCAL			LMTP5			LTOE			LMTP1			RPSIS			RASIS			RTH1			RTH2			RTH3			RTH4			RLFE			RMFE			RSH1			RSH2			RSH3			RSH4			RLMAL			RMMAL			RCAL			RMTP1			RTOE			RMTP5		
		X1	Y1	Z1	X2	Y2	Z2	X3	Y3	Z3	X4	Y4	Z4	X5	Y5	Z5	X6	Y6	Z6	X7	Y7	Z7	X8	Y8	Z8	X9	Y9	Z9	X10	Y10	Z10	X11	Y11	Z11	X12	Y12	Z12	X13	Y13	Z13	X14	Y14	Z14	X15	Y15	Z15	X16	Y16	Z16	X17	Y17	Z17	X18	Y18	Z18	X19	Y19	Z19	X20	Y20	Z20	X21	Y21	Z21	X22	Y22	Z22	X23	Y23	Z23	X24	Y24	Z24	X25	Y25	Z25	X26	Y26	Z26	X27	Y27	Z27	X28	Y28	Z28	X29	Y29	Z29	X30	Y30	Z30	X31	Y31	Z31	X32	Y32	Z32	X33	Y33	Z33	X34	Y34	Z34	X35	Y35	Z35	X36	Y36	Z36

1113	4.44800	1817.32422	1083.48181	241.15842	0.00000	0.00000	0.00000	1500.44922	667.11322	422.59042	1476.28491	629.76813	421.63309	1446.95142	692.28955	403.90680	1432.35083	651.79932	402.63516	1474.26233	577.06042	408.29538	1436.07397	580.02069	256.82037	1513.97021	491.31738	399.84348	1510.22461	443.05222	395.53397	1452.39465	487.44455	398.33344	1459.23071	440.87326	389.64603	1499.35669	116.67933	344.39005	1473.16833	127.13583	248.06525	1566.76904	105.63953	285.26700	1348.12476	61.84027	365.15384	1312.99170	96.70756	298.93295	1338.84167	77.93504	252.58089	1816.21973	1094.88867	158.78333	1571.91223	985.15527	69.41405	1705.34888	625.86694	42.21757	0.00000	0.00000	0.00000	1638.68860	616.10406	50.24796	1648.64758	575.56476	55.26897	0.00000	0.00000	0.00000	0.00000	0.00000	0.00000	1754.73486	488.23874	71.77526	1764.38135	448.16754	60.60535	0.00000	0.00000	0.00000	0.00000	0.00000	0.00000	0.00000	0.00000	0.00000	0.00000	0.00000	0.00000	0.00000	0.00000	0.00000	1633.25964	57.13813	204.27377	1610.09131	77.87898	155.14523	1631.17139	45.00740	91.89521
1114	4.45200	1813.83337	1083.10217	241.68869	0.00000	0.00000	0.00000	1494.98755	664.88159	420.90677	1472.66040	628.93256	420.31415	1443.91992	691.79169	402.74973	1428.84521	651.25775	401.15717	1470.67688	576.46210	406.72925	1432.25427	579.76672	255.56839	1508.52063	489.91272	398.31226	1502.75317	440.94269	393.97919	1446.46692	487.24417	397.30185	1452.48279	440.62067	388.44522	1484.80408	115.61872	343.72067	1458.86792	126.31453	247.46779	1551.75232	102.85106	284.24103	1333.27051	64.53573	365.44110	1298.14050	99.69759	299.12891	1325.73633	81.30297	251.42355	1812.87207	1094.70361	159.33031	1568.97925	984.80865	69.28567	1703.55920	625.75208	42.03946	0.00000	0.00000	0.00000	1636.90784	615.76617	49.93550	1646.94800	575.22906	54.93626	0.00000	0.00000	0.00000	1645.35681	556.26886	70.91970	1753.26086	488.20270	71.64172	1762.95422	448.00317	60.36710	0.00000	0.00000	0.00000	0.00000	0.00000	0.00000	0.00000	0.00000	0.00000	0.00000	0.00000	0.00000	0.00000	0.00000	0.00000	1633.35071	57.17687	204.22166	1610.17297	77.88929	155.06290	1631.09460	44.47483	93.12141
1115	4.45600	1810.35522	1082.71289	242.19785	0.00000	0.00000	0.00000	1491.66040	663.85876	420.02374	1469.02527	628.08386	419.06396	1440.80017	691.19513	401.54660	1425.29541	650.70752	399.60507	1467.19336	575.85724	405.19525	1427.91345	579.70648	254.07013	1503.08923	488.47421	396.78915	1497.11975	440.41138	392.71127	1440.67175	487.27109	395.59183	1445.96924	440.42084	387.27924	1471.25757	115.16061	343.13580	1444.69165	125.75568	246.74353	1536.87378	100.41214	283.18533	1317.96106	67.16778	365.46414	1282.44678	102.37036	299.04517	1310.41248	83.76678	251.60909	1809.53333	1094.48792	159.85297	1566.03552	984.44727	69.13359	1701.74536	625.60638	41.83870	0.00000	0.00000	0.00000	0.00000	0.00000	0.00000	1645.32104	574.93762	54.55544	0.00000	0.00000	0.00000	0.00000	0.00000	0.00000	1751.78809	488.15561	71.53435	1761.50317	447.81662	60.15386	0.00000	0.00000	0.00000	0.00000	0.00000	0.00000	0.00000	0.00000	0.00000	1643.67944	556.04199	70.63753	0.00000	0.00000	0.00000	0.00000	0.00000	0.00000	1610.28662	77.91410	155.01657	1631.06458	44.53577	93.15151
1116	4.46000	1806.80762	1082.29358	242.75775	0.00000	0.00000	0.00000	1488.21619	662.70673	419.06570	1465.34131	627.21692	417.82858	1437.73132	690.60364	400.37555	1421.84924	650.15430	398.17056	1463.78784	575.18024	403.69534	1423.92041	579.57379	252.69084	1497.65393	486.98245	395.27344	1490.60938	439.08850	391.27127	1435.49414	487.13516	394.82492	1439.27893	440.23276	386.02399	1457.33435	114.53204	342.39893	1430.55298	125.28767	246.08917	1522.14368	98.17750	282.12546	1302.66675	69.52541	365.47565	1268.09424	105.82893	299.24432	1295.96130	86.88692	251.95045	1806.16174	1094.22119	160.41701	1563.03723	984.05023	69.04036	1699.86157	625.40070	41.66210	0.00000	0.00000	0.00000	0.00000	0.00000	0.00000	1643.54382	574.56366	54.25315	0.00000	0.00000	0.00000	1641.94470	555.78052	70.31038	1750.24963	488.06857	71.38992	1759.92102	447.55139	59.93427	0.00000	0.00000	0.00000	0.00000	0.00000	0.00000	0.00000	0.00000	0.00000	0.00000	0.00000	0.00000	0.00000	0.00000	0.00000	1633.55322	57.28752	204.23236	1610.36206	77.91634	154.96628	1631.14014	44.97764	91.82163
1117	4.46400	1803.27344	1081.81799	243.31915	0.00000	0.00000	0.00000	1484.82190	661.57788	418.14490	1461.65918	626.24005	416.61130	1434.75439	689.97546	399.29489	1418.91321	649.87390	397.31668	1460.43713	574.43573	402.23660	1419.94934	579.42645	251.28421	1492.35400	485.57111	393.77719	1483.48816	437.13187	389.76804	1430.54285	487.15933	393.39658	1432.86621	440.07095	384.79474	1443.47949	114.00776	341.64532	1416.58630	125.05844	245.39616	1507.50732	96.18867	281.04471	1288.37109	72.79539	365.60971	1255.02808	109.86294	299.59644	1280.38635	89.28015	252.03064	1802.76843	1093.93530	161.02324	1560.07068	983.63684	68.92636	1697.93542	625.16638	41.49149	0.00000	0.00000	0.00000	1631.25818	614.56995	49.06938	1641.71753	574.18231	53.95770	1674.02405	543.24530	61.49232	0.00000	0.00000	0.00000	1749.03052	488.16394	70.70354	1758.32349	447.25665	59.68796	0.00000	0.00000	0.00000	0.00000	0.00000	0.00000	0.00000	0.00000	0.00000	0.00000	0.00000	0.00000	0.00000	0.00000	0.00000	1623.60071	59.39879	204.28194	1610.44568	77.89132	154.98462	1631.18762	44.93982	87.50363
1118	4.46800	1799.70203	1081.26807	243.89467	0.00000	0.00000	0.00000	1481.47766	660.42950	417.23849	1456.42334	625.05035	414.60464	1431.68237	689.33636	398.24551	1414.96423	649.21576	395.33002	1456.50452	573.34552	400.78909	1415.99719	579.20026	250.03809	1486.04138	483.32010	392.02368	1477.19836	435.89740	388.37738	1425.29089	486.99103	392.17191	1426.68201	439.86349	383.71710	1429.37573	113.34555	340.73871	1402.90906	125.07275	244.65884	1492.96729	94.28884	279.88745	1273.69604	75.49686	365.57477	1240.19629	113.02139	299.58090	1266.49841	92.66395	252.31818	1799.36145	1093.61230	161.62100	1557.02185	983.14197	68.79521	1695.95740	624.87299	41.33813	0.00000	0.00000	0.00000	0.00000	0.00000	0.00000	1639.90454	573.75262	53.63189	0.00000	0.00000	0.00000	1638.26343	554.97705	69.76989	1747.02490	487.81317	71.10358	1756.72888	446.99179	59.50615	0.00000	0.00000	0.00000	0.00000	0.00000	0.00000	0.00000	0.00000	0.00000	0.00000	0.00000	0.00000	0.00000	0.00000	0.00000	1623.61646	59.36222	204.28899	1610.46582	77.82505	154.98401	1631.26440	44.80011	88.61252
1119	4.47200	1796.11829	1080.68616	244.44797	0.00000	0.00000	0.00000	1479.74353	660.20996	416.84286	1453.41785	624.32318	413.32779	1428.56384	688.67615	397.17859	1411.95544	648.68073	394.63400	1453.18408	572.47668	399.33743	1412.30579	578.89557	248.96512	1480.83081	481.89743	390.56564	1470.89343	434.65042	386.97827	1419.66125	486.58853	391.21777	1420.51318	439.66614	382.63898	1415.97607	113.20219	339.58408	1389.25769	125.13070	243.97868	1478.69202	92.72101	278.77991	1260.21448	79.00591	365.78888	1226.64685	116.80293	299.77103	1251.50562	95.40680	252.26642	1795.93298	1093.22034	162.21645	1554.00671	982.71179	68.65180	1693.95349	624.59515	41.16978	0.00000	0.00000	0.00000	0.00000	0.00000	0.00000	1637.95374	573.25964	53.39004	0.00000	0.00000	0.00000	0.00000	0.00000	0.00000	1745.31238	487.64139	71.00968	0.00000	0.00000	0.00000	0.00000	0.00000	0.00000	1676.15649	465.95493	63.60537	0.00000	0.00000	0.00000	1279.72131	626.99469	191.43129	0.00000	0.00000	0.00000	0.00000	0.00000	0.00000	1610.55591	77.82060	155.04309	1631.21899	44.78824	88.70977
